<svg width="106" height="152" viewBox="0 0 106 152" fill="none" xmlns="http://www.w3.org/2000/svg">
<path d="M19.6996 37.1896L49.8361 13.583C50.5014 13.063 51.3215 12.7805 52.1659 12.7805C53.0103 12.7805 53.8304 13.063 54.4956 13.583L73.1587 28.3048C73.8259 28.8241 74.6472 29.1061 75.4926 29.1061C76.3381 29.1061 77.1594 28.8241 77.8266 28.3048L80.9997 25.7996C81.4511 25.4458 81.8161 24.9939 82.0671 24.4781C82.3181 23.9624 82.4485 23.3963 82.4485 22.8227C82.4485 22.2492 82.3181 21.6831 82.0671 21.1674C81.8161 20.6516 81.4511 20.1997 80.9997 19.8458L58.295 1.98438C56.6481 0.698471 54.6186 0 52.5291 0C50.4396 0 48.4101 0.698471 46.7632 1.98438L1.45405 37.4735C1.00124 37.8264 0.634909 38.278 0.382939 38.7939C0.130969 39.3097 0 39.8763 0 40.4504C0 41.0245 0.130969 41.591 0.382939 42.1069C0.634909 42.6228 1.00124 43.0743 1.45405 43.4273L37.8032 71.6515C38.4672 72.1744 39.2878 72.4587 40.133 72.4587C40.9781 72.4587 41.7987 72.1744 42.4627 71.6515L45.6359 69.1464C46.0887 68.7935 46.455 68.3419 46.707 67.826C46.959 67.3102 47.0899 66.7436 47.0899 66.1695C47.0899 65.5954 46.959 65.0289 46.707 64.513C46.455 63.9971 46.0887 63.5456 45.6359 63.1926L19.6996 43.1517C19.2453 42.7989 18.8776 42.3469 18.6246 41.8302C18.3717 41.3135 18.2402 40.7459 18.2402 40.1706C18.2402 39.5954 18.3717 39.0277 18.6246 38.5111C18.8776 37.9944 19.2453 37.5424 19.6996 37.1896V37.1896Z" fill="#3E66B0"/>
<path d="M85.7607 112.46L68.4754 125.904C68.077 126.21 67.7543 126.603 67.5323 127.053C67.3102 127.504 67.1947 127.999 67.1947 128.501C67.1947 129.003 67.3102 129.499 67.5323 129.949C67.7543 130.399 68.077 130.792 68.4754 131.098L72.4752 134.229C73.051 134.68 73.7609 134.924 74.4918 134.924C75.2228 134.924 75.9327 134.68 76.5085 134.229L104.741 112.218C105.133 111.913 105.45 111.523 105.668 111.078C105.887 110.632 106 110.142 106 109.646C106 109.15 105.887 108.66 105.668 108.214C105.45 107.768 105.133 107.378 104.741 107.074L68.5589 78.1316C67.9831 77.6813 67.2732 77.4366 66.5423 77.4366C65.8113 77.4366 65.1014 77.6813 64.5257 78.1316L60.125 81.5469C59.7344 81.8531 59.4185 82.2442 59.2013 82.6905C58.9841 83.1368 58.8712 83.6266 58.8712 84.123C58.8712 84.6193 58.9841 85.1092 59.2013 85.5555C59.4185 86.0018 59.7344 86.3928 60.125 86.6991L85.7273 107.316C86.1212 107.618 86.4409 108.006 86.662 108.45C86.8831 108.895 86.9997 109.384 87.0029 109.88C87.0061 110.376 86.8959 110.867 86.6806 111.314C86.4653 111.761 86.1506 112.153 85.7607 112.46V112.46Z" fill="#3F66B0"/>
<path d="M58.5898 149.302C59.14 148.871 59.5849 148.321 59.891 147.693C60.197 147.065 60.3561 146.376 60.3561 145.678C60.3561 144.979 60.197 144.29 59.891 143.662C59.5849 143.034 59.14 142.484 58.5898 142.054L53.9136 138.388L30.8999 120.359C29.3257 119.127 28.0525 117.553 27.1768 115.757C26.3012 113.96 25.8462 111.987 25.8462 109.988C25.8462 107.989 26.3012 106.017 27.1768 104.22C28.0525 102.423 29.3257 100.849 30.8999 99.6169L100.442 45.6151C101.056 45.1389 101.552 44.5287 101.894 43.8311C102.236 43.1335 102.414 42.367 102.414 41.5902C102.414 40.8133 102.236 40.0468 101.894 39.3492C101.552 38.6516 101.056 38.0414 100.442 37.5653L98.7718 36.271C97.9605 35.6385 96.9613 35.2951 95.9326 35.2951C94.904 35.2951 93.9048 35.6385 93.0935 36.271L4.02008 106.047C3.46988 106.477 3.02489 107.027 2.71886 107.655C2.41283 108.283 2.25378 108.972 2.25378 109.671C2.25378 110.369 2.41283 111.059 2.71886 111.687C3.02489 112.314 3.46988 112.864 4.02008 113.295L51.4335 150.429C52.2429 151.066 53.2428 151.412 54.2726 151.412C55.3024 151.412 56.3023 151.066 57.1118 150.429L58.5898 149.302Z" fill="black"/>
</svg>
