<svg width="46" height="44" viewBox="0 0 46 44" fill="none" xmlns="http://www.w3.org/2000/svg">
<path d="M23 0C19.9796 0 16.9888 0.583175 14.1983 1.71623C11.4078 2.84928 8.87229 4.51002 6.73654 6.60363C2.42321 10.8319 0 16.5666 0 22.5462C0 32.5116 6.601 40.9664 15.732 43.9651C16.882 44.1454 17.25 43.4465 17.25 42.8378V39.0275C10.879 40.3802 9.522 36.0063 9.522 36.0063C8.464 33.3909 6.969 32.692 6.969 32.692C4.876 31.2941 7.13 31.3392 7.13 31.3392C9.43 31.497 10.649 33.6615 10.649 33.6615C12.65 37.0885 16.031 36.0739 17.342 35.5328C17.549 34.0673 18.147 33.0753 18.791 32.5116C13.685 31.948 8.326 30.009 8.326 21.4189C8.326 18.9163 9.2 16.9096 10.695 15.3089C10.465 14.7452 9.66 12.4004 10.925 9.35667C10.925 9.35667 12.857 8.74792 17.25 11.6564C19.067 11.1604 21.045 10.9124 23 10.9124C24.955 10.9124 26.933 11.1604 28.75 11.6564C33.143 8.74792 35.075 9.35667 35.075 9.35667C36.34 12.4004 35.535 14.7452 35.305 15.3089C36.8 16.9096 37.674 18.9163 37.674 21.4189C37.674 30.0315 32.292 31.9254 27.163 32.4891C27.991 33.188 28.75 34.5633 28.75 36.6601V42.8378C28.75 43.4465 29.118 44.168 30.291 43.9651C39.422 40.9439 46 32.5116 46 22.5462C46 19.5854 45.4051 16.6536 44.2492 13.9181C43.0934 11.1827 41.3992 8.69723 39.2635 6.60363C37.1277 4.51002 34.5922 2.84928 31.8017 1.71623C29.0112 0.583175 26.0204 0 23 0V0Z" fill="black"/>
</svg>
