<svg width="44" height="44" viewBox="0 0 44 44" fill="none" xmlns="http://www.w3.org/2000/svg">
<path d="M12.76 0H31.24C38.28 0 44 5.72 44 12.76V31.24C44 34.6242 42.6556 37.8697 40.2627 40.2627C37.8697 42.6556 34.6242 44 31.24 44H12.76C5.72 44 0 38.28 0 31.24V12.76C0 9.37584 1.34435 6.13028 3.73732 3.73732C6.13028 1.34435 9.37584 0 12.76 0V0ZM12.32 4.4C10.2195 4.4 8.205 5.23443 6.71971 6.71971C5.23443 8.205 4.4 10.2195 4.4 12.32V31.68C4.4 36.058 7.942 39.6 12.32 39.6H31.68C33.7805 39.6 35.795 38.7656 37.2803 37.2803C38.7656 35.795 39.6 33.7805 39.6 31.68V12.32C39.6 7.942 36.058 4.4 31.68 4.4H12.32ZM33.55 7.7C34.2793 7.7 34.9788 7.98973 35.4945 8.50546C36.0103 9.02118 36.3 9.72065 36.3 10.45C36.3 11.1793 36.0103 11.8788 35.4945 12.3945C34.9788 12.9103 34.2793 13.2 33.55 13.2C32.8207 13.2 32.1212 12.9103 31.6055 12.3945C31.0897 11.8788 30.8 11.1793 30.8 10.45C30.8 9.72065 31.0897 9.02118 31.6055 8.50546C32.1212 7.98973 32.8207 7.7 33.55 7.7ZM22 11C24.9174 11 27.7153 12.1589 29.7782 14.2218C31.8411 16.2847 33 19.0826 33 22C33 24.9174 31.8411 27.7153 29.7782 29.7782C27.7153 31.8411 24.9174 33 22 33C19.0826 33 16.2847 31.8411 14.2218 29.7782C12.1589 27.7153 11 24.9174 11 22C11 19.0826 12.1589 16.2847 14.2218 14.2218C16.2847 12.1589 19.0826 11 22 11V11ZM22 15.4C20.2496 15.4 18.5708 16.0954 17.3331 17.3331C16.0954 18.5708 15.4 20.2496 15.4 22C15.4 23.7504 16.0954 25.4292 17.3331 26.6669C18.5708 27.9046 20.2496 28.6 22 28.6C23.7504 28.6 25.4292 27.9046 26.6669 26.6669C27.9046 25.4292 28.6 23.7504 28.6 22C28.6 20.2496 27.9046 18.5708 26.6669 17.3331C25.4292 16.0954 23.7504 15.4 22 15.4Z" fill="black"/>
</svg>
