<svg width="35" height="34" viewBox="0 0 35 34" fill="none" xmlns="http://www.w3.org/2000/svg">
<path d="M8.15149 26.3186C7.86243 26.2623 7.63118 26.206 7.34211 26.0935C7.05305 25.981 6.8218 25.9247 6.59055 25.8122C6.07024 25.5871 5.60774 25.3058 5.14524 24.9682C4.22024 24.3493 3.46867 23.5053 2.89055 22.4925C2.31242 21.536 1.96555 20.4107 1.90774 19.3416C1.84992 18.779 1.90774 18.2726 1.96555 17.7099C2.02336 17.4286 2.08117 17.2035 2.13899 16.9222C2.1968 16.6409 2.31242 16.4158 2.37024 16.1345L2.42805 16.9222C2.42805 17.2035 2.48586 17.4286 2.54367 17.7099C2.60149 18.2163 2.71711 18.7227 2.83274 19.1728C3.06399 20.1293 3.41086 21.0296 3.93117 21.8736C4.45149 22.7176 5.02961 23.5053 5.78118 24.2367C6.12805 24.5743 6.53274 24.9119 6.93743 25.2495C7.11086 25.4183 7.34211 25.5871 7.57336 25.7559L8.15149 26.3186Z" fill="#42ADE2"/>
<path d="M7.97812 28.3439C7.80468 28.4565 7.57343 28.5127 7.34218 28.569C7.11093 28.6252 6.93749 28.6815 6.70624 28.6815C6.30156 28.7378 5.83906 28.794 5.37656 28.7378C4.50937 28.6815 3.58437 28.4565 2.83281 28.0626C2.02344 27.6687 1.32969 27.0498 0.867187 26.3184C0.635937 25.9808 0.404687 25.5869 0.23125 25.193C0.173437 25.0242 0.115625 24.7992 0.0578124 24.5741C0.0578124 24.4053 0 24.2365 0 24.0115C0.173437 24.1803 0.289062 24.349 0.404687 24.4616C0.578125 24.6304 0.693749 24.7992 0.809374 24.9117C1.09844 25.193 1.32969 25.4744 1.61875 25.6994C2.19687 26.2058 2.775 26.6559 3.46875 26.9935C4.10468 27.3311 4.85625 27.6125 5.55 27.8375C5.89687 27.9501 6.30156 28.0063 6.70624 28.1189C6.87968 28.1751 7.11093 28.1751 7.28437 28.2314C7.57343 28.2877 7.74687 28.2877 7.97812 28.3439Z" fill="#42ADE2"/>
<path d="M21.0439 0.998779C21.3329 1.05505 21.5642 1.16758 21.8532 1.28011C22.1423 1.39264 22.3735 1.50517 22.6048 1.6177C23.1251 1.89903 23.5876 2.18036 24.0501 2.51795C24.9751 3.19314 25.7267 4.09339 26.247 5.10618C26.7673 6.11896 27.0564 7.24427 27.0564 8.31332C27.0564 8.87598 26.9986 9.38237 26.8829 9.94503C26.8251 10.2264 26.7673 10.4514 26.6517 10.7327C26.5361 11.0141 26.4782 11.2391 26.3626 11.4642L26.3048 10.6765C26.3048 10.3952 26.3048 10.1701 26.247 9.88876L26.0736 8.36959C25.9001 7.41307 25.5532 6.45655 25.0907 5.5563C24.6282 4.65605 24.0501 3.86833 23.3564 3.13688C23.0095 2.74302 22.6048 2.40542 22.2579 2.01156C22.0845 1.84277 21.8532 1.67397 21.622 1.50517L21.0439 0.998779Z" fill="#42ADE2"/>
<path d="M26.0732 0.773682C26.3045 0.829947 26.4779 0.886213 26.6514 0.998744C26.8248 1.05501 27.056 1.16754 27.2295 1.28007C27.5764 1.50513 27.9232 1.7302 28.2701 2.01152C28.906 2.57418 29.4263 3.24937 29.7154 4.03708C30.0623 4.8248 30.1779 5.66879 30.0623 6.51277C30.0045 6.90663 29.8888 7.30049 29.7732 7.69435C29.7154 7.86315 29.5998 8.08821 29.542 8.257C29.4263 8.4258 29.3685 8.5946 29.1951 8.76339V8.20074V7.63808C29.1951 7.24422 29.1373 6.90663 29.1373 6.56904C29.0217 5.83758 28.906 5.1624 28.617 4.54348C28.3279 3.86829 27.981 3.30563 27.5764 2.68671C27.3451 2.40538 27.1139 2.06779 26.8826 1.78646C26.767 1.61766 26.6514 1.50513 26.4779 1.33634C26.3623 1.05501 26.1889 0.886213 26.0732 0.773682Z" fill="#42ADE2"/>
<path d="M4.6245 9.15758C3.46825 9.66397 3.06357 11.0143 3.58388 12.1396L10.8683 26.9375L14.9151 25.0807L7.63075 10.2266C7.11044 9.10132 5.78075 8.59493 4.6245 9.15758Z" fill="#FFDD67"/>
<path d="M23.7607 20.9169L28.0388 18.9476L19.7138 2.06794C19.1357 0.94263 17.7482 0.436239 16.5341 0.998895C15.3779 1.56155 14.8576 2.91192 15.4357 4.0935L23.7607 20.9169Z" fill="#FFDD67"/>
<path d="M16.592 0.94226C16.4764 0.998526 16.3607 1.05479 16.2451 1.16732C17.3436 0.885995 18.4998 1.39239 19.0201 2.40517L27.3451 19.2849L28.0967 18.9473L19.7717 2.06757C19.1936 0.885995 17.8061 0.379604 16.592 0.94226Z" fill="#EBA352"/>
<path d="M14.9153 25.0241L19.3669 22.9423L10.8684 5.72497C10.2903 4.54339 8.78716 3.98074 7.57309 4.54339C6.35903 5.10605 5.83872 6.56896 6.41684 7.75053L14.9153 25.0241Z" fill="#FFDD67"/>
<path d="M7.57344 4.59976C7.45781 4.65603 7.34219 4.7123 7.22656 4.82483C8.325 4.5435 9.59687 5.04989 10.1172 6.11894L15.3781 16.8657L16.65 17.5971L10.8687 5.78135C10.2906 4.5435 8.84531 4.03711 7.57344 4.59976Z" fill="#EBA352"/>
<path d="M18.6731 21.5919L23.1247 19.51L14.6262 2.29274C14.0481 1.11116 12.545 0.548502 11.3309 1.16743C10.1168 1.73008 9.59652 3.19299 10.1747 4.37457L18.6731 21.5919Z" fill="#FFDD67"/>
<path d="M11.3322 1.11124C11.2166 1.16751 11.101 1.28004 10.9854 1.33631C12.0838 1.05498 13.3557 1.56137 13.876 2.63042L19.8307 14.7838L21.1026 15.5153L14.6276 2.29282C14.0494 1.05498 12.5463 0.548585 11.3322 1.11124Z" fill="#EBA352"/>
<path d="M4.6252 9.15735C4.50957 9.21361 4.39395 9.26988 4.27832 9.38241C5.31895 9.10108 6.41738 9.60747 6.87988 10.6203L11.2158 19.454L12.4877 20.1854L7.63145 10.2827C7.11113 9.10108 5.78145 8.59469 4.6252 9.15735Z" fill="#EBA352"/>
<path d="M33.9942 7.4695C32.4332 6.28792 29.8895 7.58203 28.6176 11.6331C27.7504 14.4464 27.6348 15.2904 25.7848 16.1344L24.7442 14.0526C24.7442 14.0526 8.32543 21.761 8.96137 22.9988C8.96137 22.9988 10.927 28.963 14.2801 31.72C19.252 35.8836 30.8723 31.4387 31.3926 20.6919C31.6817 14.4464 35.6707 8.76361 33.9942 7.4695Z" fill="#FFDD67"/>
<path d="M33.994 7.4693C33.7049 7.24424 33.358 7.13171 33.0111 7.07544C33.069 7.13171 33.1846 7.13171 33.2424 7.18797C34.9768 8.48208 33.1846 11.4642 32.2018 14.1649C31.3924 16.303 30.6986 18.4974 30.8143 20.6355C31.2768 29.9756 21.6221 34.4206 15.8408 32.7326C21.5064 35.0395 32.0283 30.6508 31.5658 20.9168C31.4502 18.7787 32.0861 16.6969 32.9533 14.4463C33.8783 11.7455 35.6705 8.76341 33.994 7.4693Z" fill="#EBA352"/>
<path d="M26.3054 15.9092C22.721 16.303 17.4601 21.3107 21.1601 26.7684C18.4429 21.2544 22.8945 17.5409 25.7273 16.2468C26.0164 16.0217 26.3054 15.9092 26.3054 15.9092Z" fill="#EBA352"/>
</svg>
