<svg width="32" height="32" viewBox="0 0 32 32" fill="none" xmlns="http://www.w3.org/2000/svg">
<path d="M31.4886 16.0623C31.4886 24.5249 24.4396 31.3854 15.7443 31.3854C7.04996 31.3854 0 24.5249 0 16.0623C0 7.6006 7.04996 0.739258 15.7443 0.739258C24.4396 0.739258 31.4886 7.6006 31.4886 16.0623Z" fill="#FFCC4D"/>
<path d="M10.0588 16.0625C11.2665 16.0625 12.2455 13.9663 12.2455 11.3805C12.2455 8.79471 11.2665 6.69849 10.0588 6.69849C8.85109 6.69849 7.87207 8.79471 7.87207 11.3805C7.87207 13.9663 8.85109 16.0625 10.0588 16.0625Z" fill="#664500"/>
<path d="M21.4308 16.0625C22.6385 16.0625 23.6175 13.9663 23.6175 11.3805C23.6175 8.79471 22.6385 6.69849 21.4308 6.69849C20.2231 6.69849 19.2441 8.79471 19.2441 11.3805C19.2441 13.9663 20.2231 16.0625 21.4308 16.0625Z" fill="#664500"/>
<path d="M15.7465 19.4674C12.5775 19.4674 10.4748 19.1081 7.87437 18.6161C7.28045 18.5046 6.125 18.6161 6.125 20.3187C6.125 23.7238 10.1441 27.9802 15.7465 27.9802C21.348 27.9802 25.368 23.7238 25.368 20.3187C25.368 18.6161 24.2126 18.5037 23.6187 18.6161C21.0182 19.1081 18.9155 19.4674 15.7465 19.4674Z" fill="#664500"/>
<path d="M7.87207 20.3193C7.87207 20.3193 10.4961 21.1706 15.7443 21.1706C20.9924 21.1706 23.6164 20.3193 23.6164 20.3193C23.6164 20.3193 21.867 23.7244 15.7443 23.7244C9.62144 23.7244 7.87207 20.3193 7.87207 20.3193Z" fill="white"/>
</svg>
